{"title":"Kagadi Killa 94 2013 Marathi 1080p Untouched HD x264 AAC [TMB]","uid":15547528,"size":1539267700,"categoryP":"video","categoryS":"movies","magnet":"?xt=urn:btih:8932fe2cc1a08132b440bbdb734f552707d0c15f&amp;dn=Kagadi+Killa+94+2013+Marathi+1080p+Untouched+HD+x264+AAC+%5BTMB%5D&amp;tr=udp%3A%2F%2Ftracker.leechers-paradise.org%3A6969&amp;tr=udp%3A%2F%2Fzer0day.ch%3A1337&amp;tr=udp%3A%2F%2Fopen.demonii.com%3A1337&amp;tr=udp%3A%2F%2Ftracker.coppersurfer.tk%3A6969&amp;tr=udp%3A%2F%2Fexodus.desync.com%3A6969","seeders":0,"leechers":1,"uploader":"Manoj_vb","files":1,"time":1470991294,"description":"http://i1306.photobucket.com/albums/s570/zyx55e/44_zpsc46e809d.gif\r\n\r\nNote : This movie is created by few college students as their project... &amp; run at some film festival...\r\n \nhttp://s25.postimg.org/5urm5kn3z/vlcsnap_0253_06_25_01h43m26s393.png\r\n \nhttp://s25.postimg.org/4v1b9v7y7/vlcsnap_2401_02_28_12h25m39s951.png\r\n \nhttp://s25.postimg.org/non46v667/vlcsnap_3217_08_03_13h18m34s598.png\r\n \nhttp://s25.postimg.org/bk7upvta7/vlcsnap_4963_10_03_00h55m08s037.png\r\n \nhttp://s25.postimg.org/6t7z7v0fz/vlcsnap_5326_03_18_03h58m04s521.png\r\n \nhttp://s25.postimg.org/sed1vgx6n/vlcsnap_6776_10_10_08h02m43s362.png\r\n \nhttp://s25.postimg.org/4d65u0idb/vlcsnap_7748_10_09_13h44m16s561.png\r\n \nhttp://s25.postimg.org/g3k3beb5r/vlcsnap_7968_02_06_18h49m01s306.png\r\n \nhttp://s25.postimg.org/i1qr9e3nj/vlcsnap_9748_07_14_23h05m26s390.png\r\n \nhttp://i1306.photobucket.com/albums/s570/zyx55e/oie_11162011MOJeDGQI_zpsc25b2b81.gif\r\n\r\nGeneral\r\nComplete name               : Kagadi Killa 94 2013 1080p Untouched WebHD x264 AAC [TMB].mp4\r\nFormat                      : MPEG-4\r\nFormat profile              : Base Media\r\nCodec ID                    : isom (isom/iso2/avc1/mp41)\r\nFile size                   : 1.43 GiB\r\nDuration                    : 1h 30mn\r\nOverall bit rate mode       : Variable\r\nOverall bit rate            : 2 267 Kbps\r\n\r\nVideo\r\nFormat                      : AVC\r\nFormat/Info                 : Advanced Video Codec\r\nFormat profile              :   \r\nFormat settings, CABAC      : Yes\r\nFormat settings, ReFrames   : 2 frames\r\nCodec ID                    : avc1\r\nCodec ID/Info               : Advanced Video Coding\r\nDuration                    : 18mn 57s\r\nSource duration             : 1h 30mn\r\nBit rate                    : 1 869 Kbps\r\nWidth                       : 1 920 pixels\r\nHeight                      : 1 080 pixels\r\nDisplay aspect ratio        : 16:9\r\nFrame rate mode             : Constant\r\nFrame rate                  : 25.000 fps\r\nColor space                 : YUV\r\nChroma subsampling          : 4:2:0\r\nBit depth                   : 8 bits\r\nScan type                   : Progressive\r\nBits/(Pixel*Frame)          : 0.036\r\nStream size                 : 253 MiB (17%)\r\nSource stream size          : 1.35 GiB (94%)\r\n\r\nAudio\r\nFormat                      : AAC\r\nFormat/Info                 : Advanced Audio Codec\r\nFormat profile              : LC\r\nCodec ID                    : 40\r\nDuration                    : 1h 30mn\r\nBit rate mode               : Variable\r\nBit rate                    : 126 Kbps\r\nChannel(s)                  : 2 channels\r\nChannel positions           : Front: L R\r\nSampling rate               : 44.1 KHz\r\nFrame rate                  : 43.066 fps (1024 spf)\r\nCompression mode            : Lossy\r\nStream size                 : 81.3 MiB (6%)\r\n\r\nShared by Manojvb\r\n\r\nSeeding 24x7... Extreme Seeding...\r\n\r\n \nhttp://i1306.photobucket.com/albums/s570/zyx55e/oie_1117625zVIGKvnK_zpsc8b6e055.gif","torrent":{"xt":"urn:btih:8932fe2cc1a08132b440bbdb734f552707d0c15f","amp;dn":"Kagadi+Killa+94+2013+Marathi+1080p+Untouched+HD+x264+AAC+%5BTMB%5D","amp;tr":["udp%3A%2F%2Ftracker.leechers-paradise.org%3A6969","udp%3A%2F%2Fzer0day.ch%3A1337","udp%3A%2F%2Fopen.demonii.com%3A1337","udp%3A%2F%2Ftracker.coppersurfer.tk%3A6969","udp%3A%2F%2Fexodus.desync.com%3A6969"],"infoHash":"8932fe2cc1a08132b440bbdb734f552707d0c15f","infoHashBuffer":{"type":"Buffer","data":[137,50,254,44,193,160,129,50,180,64,187,219,115,79,85,39,7,208,193,95]},"announce":[],"urlList":[]}}